# xmcd
#
# Track frame offsets:
#	150
#	9552
#	29023
#	46532
#	60767
#	79662
#	95917
#	112529
#	127106
#	140810
#	151374
#	177664
#	192656
#	216631
#
# Disc length: 3060 seconds
#
# Revision: 0
# Processed by: cddbd v1.5.2PL0 Copyright (c) Steve Scherf et al.
# Submitted via: FairStars CD Ripper 1.32
#
DISCID=c70bf20e
DTITLE=King Comets - Pull the String
DYEAR=2007
DGENRE=Pop
TTITLE0=Michael Fricke - Yoo Hoo Yoo Hoo
TTITLE1=Annie Lennox, David Stewart - Sweet Dreams
TTITLE2=Crazy Dancing Girl
TTITLE3=She's Real Gone
TTITLE4=Don't You Just Know It
TTITLE5=Young Blood
TTITLE6=Caldonia
TTITLE7=I Got Drunk
TTITLE8=She Said Goodbye
TTITLE9=No No No No No
TTITLE10=In The Morning
TTITLE11=Hotter Than Hell
TTITLE12=Let The Good Times Roll
TTITLE13=Red Hot
EXTD=
EXTT0=
EXTT1=
EXTT2=
EXTT3=
EXTT4=
EXTT5=
EXTT6=
EXTT7=
EXTT8=
EXTT9=
EXTT10=
EXTT11=
EXTT12=
EXTT13=
PLAYORDER=
